<svg width="187" height="25" viewBox="0 0 187 25" fill="none" xmlns="http://www.w3.org/2000/svg">
<g clip-path="url(#clip0_1146_56)">
<path d="M13.7419 19.35H10.8719L9.66187 15.98H4.78188L3.54187 19.35H0.671875L5.64187 5.90002H8.91187L13.7519 19.35H13.7419ZM8.82187 13.67L7.26188 9.25002L5.63188 13.67H8.82187Z" fill="#231815"/>
<path d="M13.6914 13.92V5.90002H16.3914V13.89C16.3914 15.77 17.2114 16.96 19.0714 16.96C20.9314 16.96 21.7514 15.77 21.7514 13.89V5.90002H24.4514V13.92C24.4514 17.19 22.4414 19.47 19.0714 19.47C15.7014 19.47 13.6914 17.18 13.6914 13.92Z" fill="#231815"/>
<path d="M25.7109 12.63C25.7109 8.57999 28.4409 5.73999 32.3509 5.75999C34.2009 5.75999 35.8509 6.53999 37.0409 7.76999L35.3209 9.66999C34.7009 8.74999 33.5509 8.10999 32.3409 8.10999C29.9309 8.08999 28.4209 9.82999 28.4209 12.64C28.4209 15.45 29.9309 17.17 32.3409 17.17C33.7609 17.17 34.6809 16.42 35.2009 15.71L37.0509 17.5C35.8609 18.72 34.4209 19.54 32.3609 19.51C28.4609 19.51 25.7209 16.67 25.7209 12.64L25.7109 12.63Z" fill="#231815"/>
<path d="M47.6103 8.21002H44.1003V19.35H41.4003V8.21002H37.8203V5.90002H47.6203V8.21002H47.6103Z" fill="#231815"/>
<path d="M51.9617 5.90002V19.35H49.2617V5.90002H51.9617Z" fill="#231815"/>
<path d="M60.3217 5.76001C64.3117 5.76001 67.1317 8.60001 67.1317 12.63C67.1317 16.66 64.3117 19.5 60.3217 19.5C56.3317 19.5 53.5117 16.66 53.5117 12.63C53.5117 8.60001 56.3317 5.76001 60.3217 5.76001ZM64.4417 12.63C64.4417 9.84001 62.8617 8.10001 60.3217 8.10001C57.7817 8.10001 56.2017 9.84001 56.2017 12.63C56.2017 15.42 57.7817 17.16 60.3217 17.16C62.8617 17.16 64.4417 15.42 64.4417 12.63Z" fill="#231815"/>
<path d="M80.0711 19.35H77.0211L71.3211 10.39V19.35H68.6211V5.90002H71.6711L77.3711 14.88V5.90002H80.0711V19.35Z" fill="#231815"/>
<path d="M133.852 19.35H130.802L125.102 10.39V19.35H122.402V5.90002H125.452L131.152 14.88V5.90002H133.852V19.35Z" fill="#231815"/>
<path d="M144.892 8.21002H141.382V19.35H138.682V8.21002H135.102V5.90002H144.902V8.21002H144.892Z" fill="#231815"/>
<path d="M149.243 5.90002V19.35H146.543V5.90002H149.243Z" fill="#231815"/>
<path d="M162.661 19.35H159.611L153.911 10.39V19.35H151.211V5.90002H154.261L159.961 14.88V5.90002H162.661V19.35Z" fill="#231815"/>
<path d="M164.641 13.92V5.90002H167.341V13.89C167.341 15.77 168.161 16.96 170.021 16.96C171.881 16.96 172.701 15.77 172.701 13.89V5.90002H175.401V13.92C175.401 17.19 173.391 19.47 170.021 19.47C166.651 19.47 164.641 17.18 164.641 13.92Z" fill="#231815"/>
<path d="M186.33 8.21003H179.85V11.28H185.39V13.59H179.85V17.05H186.33V19.36H177.16V5.91003H186.33V8.22003V8.21003Z" fill="#231815"/>
<path d="M115.763 6.17002C112.003 1.78002 105.533 2.69002 102.533 5.20002C100.933 6.52002 100.163 8.40002 100.023 8.61002C99.6034 9.58002 99.3234 10.63 99.2534 11.67V11.88C99.2534 12.37 99.2534 12.85 99.1834 13.34C99.1134 13.69 98.9034 14.52 98.2734 15.43C97.7134 16.34 97.0234 16.82 96.7434 17.03C96.3234 17.31 95.7034 17.66 94.8634 17.94C94.8634 17.94 93.4734 18.29 92.2134 18.01C90.1934 17.59 86.7835 14.88 87.5535 11.05C88.1835 7.85002 91.3134 5.76002 94.5134 6.39002C95.1434 6.53002 96.1134 6.88002 97.0934 7.64002L99.2534 4.86002C97.5134 3.47002 95.8434 3.05002 95.2134 2.91002C90.2034 1.94002 85.2534 5.28002 84.2134 10.36C83.1034 16 87.7634 20.59 91.5934 21.36C92.2234 21.5 92.7734 21.5 93.3334 21.5C94.6534 21.5 95.6334 21.22 95.7734 21.22C96.8834 20.94 97.8634 20.45 98.7634 19.83C99.3234 19.48 100.293 18.65 101.203 17.32C102.113 15.93 102.453 14.67 102.593 13.98C102.733 13.29 102.733 12.66 102.733 11.96C102.803 11.33 102.943 10.64 103.223 10.01C103.223 10.01 103.783 8.69002 104.753 7.85002C106.353 6.53002 110.603 5.48002 113.103 8.48002C114.143 9.66002 114.633 11.2 114.563 12.8C114.423 14.4 113.723 15.79 112.543 16.84C112.053 17.26 111.153 17.81 109.963 18.09C108.713 18.37 107.733 18.23 107.453 18.16C107.033 18.09 106.203 17.88 105.363 17.32C104.943 17.04 104.523 16.69 104.113 16.28L102.093 19.13C102.653 19.76 102.723 19.76 103.413 20.17C104.803 21.08 106.133 21.42 106.753 21.56C107.033 21.63 107.663 21.7 108.353 21.7C108.983 21.7 109.813 21.63 110.653 21.42C112.813 20.93 114.133 19.89 114.693 19.4C116.573 17.73 117.753 15.5 117.893 12.99C118.173 10.41 117.403 8.05002 115.733 6.17002H115.763Z" fill="#B39BC9"/>
</g>
<defs>
<clipPath id="clip0_1146_56">
<rect width="187" height="25" fill="white"/>
</clipPath>
</defs>
</svg>
