<svg width="1067" height="224" viewBox="0 0 1067 224" fill="none" xmlns="http://www.w3.org/2000/svg">
<path d="M28.2502 74.4241L0 152.03H16.3215L23.3694 132.595H51.112L57.9842 152.03H74.3643L46.8364 74.4241H28.2502ZM28.1916 119.257L37.4652 93.7627L46.3288 119.257H28.1916Z" fill="white"/>
<path d="M120.166 120.515C120.166 131.356 115.5 138.228 104.938 138.228C94.3757 138.228 89.7096 131.356 89.7096 120.515V74.4241H74.3643V120.69C74.3643 139.506 85.7854 152.708 104.938 152.708C124.09 152.708 135.511 139.564 135.511 120.69V74.4241H120.166V120.515Z" fill="white"/>
<path d="M181.118 140.261C167.412 140.261 158.842 130.33 158.842 114.127C158.842 97.9246 167.432 87.8778 181.118 87.994C187.99 87.994 194.53 91.6913 198.064 96.9954L207.845 86.0388C201.07 78.9344 191.699 74.4434 181.196 74.4434C158.978 74.3272 143.457 90.7041 143.457 114.069L143.516 114.127C143.516 137.376 159.095 153.753 181.254 153.753C192.968 153.927 201.149 149.204 207.904 142.158L197.381 131.84C194.433 135.944 189.2 140.261 181.118 140.261Z" fill="white"/>
<path d="M215.791 87.7617H236.134V152.03H251.48V87.7617H271.432H271.491V74.4241H215.791V87.7617Z" fill="white"/>
<path d="M294.763 74.4241H279.417V152.011H294.763V74.4241Z" fill="white"/>
<path d="M341.385 74.4241C318.698 74.4241 302.67 90.8009 302.67 114.05C302.67 137.299 318.698 153.676 341.385 153.676C364.071 153.676 380.099 137.299 380.099 114.05C380.099 90.8009 364.071 74.4241 341.385 74.4241ZM341.385 140.203C326.957 140.203 317.957 130.156 317.957 114.069C317.957 97.9827 326.937 87.9359 341.385 87.9359C355.832 87.9359 364.793 97.9827 364.793 114.069C364.793 130.156 355.812 140.203 341.385 140.203Z" fill="white"/>
<path d="M437.732 126.226L405.343 74.4241H388.006V152.03H403.351V100.325L435.74 152.03H453.077V74.4241H437.732V126.226Z" fill="white"/>
<path d="M741.671 127.039L709.262 75.2371H691.925V152.824H707.29V101.138L739.679 152.824H757.016V75.2371H741.671V127.039Z" fill="white"/>
<path d="M764.923 88.5554H785.286V152.824H800.631V88.5554H820.584H820.643V75.2371H764.923V88.5554Z" fill="white"/>
<path d="M843.895 75.2371H828.549V152.824H843.895V75.2371Z" fill="white"/>
<path d="M901.547 127.039L869.138 75.2371H851.802V152.824H867.147V101.138L899.556 152.824H916.892V75.2371H901.547V127.039Z" fill="white"/>
<path d="M970.62 121.328C970.62 132.169 965.954 139.041 955.392 139.041C944.83 139.041 940.164 132.169 940.164 121.328V75.2371H924.819V121.503C924.819 140.319 936.24 153.521 955.392 153.521C974.545 153.521 985.966 140.377 985.966 121.503V75.2371H970.62V121.328Z" fill="white"/>
<path d="M993.873 75.2371V152.824H1046V139.506H1009.16V119.547H1040.65V106.21H1009.16V88.4973H1046V75.2371H993.873Z" fill="white"/>
<path d="M656.432 76.7858C635.054 51.4655 598.272 56.7115 581.228 71.1913C572.13 78.799 567.757 89.6588 566.957 90.859C564.575 96.4535 562.974 102.513 562.583 108.513V109.733C562.583 112.559 562.583 115.328 562.193 118.154C561.802 120.167 560.592 124.968 557.019 130.214C553.837 135.46 549.913 138.228 548.331 139.448C545.95 141.054 542.416 143.087 537.652 144.694C537.652 144.694 529.745 146.707 522.58 145.1C511.1 142.68 491.714 127.039 496.087 104.952C499.66 86.4841 517.465 74.4434 535.641 78.0634C539.214 78.8764 544.739 80.8896 550.303 85.2839L562.583 69.2555C552.685 61.2413 543.197 58.8215 539.624 58.0085C511.139 52.414 483.006 71.6752 477.091 100.983C470.785 133.524 497.258 160.006 519.046 164.439C522.619 165.252 525.762 165.252 528.945 165.252C536.442 165.252 542.025 163.645 542.806 163.645C549.112 162.038 554.676 159.212 559.811 155.631C562.993 153.618 568.499 148.817 573.673 141.151C578.846 133.137 580.779 125.858 581.58 121.89C582.38 117.902 582.38 114.282 582.38 110.236C582.77 106.597 583.571 102.629 585.172 98.9894C585.172 98.9894 588.354 91.3817 593.86 86.5228C602.958 78.9151 627.108 72.8561 641.321 90.1621C647.236 96.9761 650.009 105.861 649.618 115.076C648.818 124.31 644.835 132.324 638.139 138.383C635.347 140.803 630.232 143.977 623.477 145.603C616.37 147.21 610.806 146.416 609.205 146.01C606.823 145.603 602.099 144.403 597.335 141.17C594.953 139.564 592.552 137.531 590.228 135.169L578.749 151.604C581.931 155.244 582.321 155.244 586.246 157.605C594.153 162.851 601.708 164.826 605.222 165.62C606.823 166.026 610.396 166.433 614.32 166.433C617.893 166.433 622.618 166.026 627.401 164.826C639.681 162 647.178 155.999 650.36 153.172C661.039 143.532 667.755 130.678 668.556 116.199C670.157 101.312 665.764 87.7037 656.276 76.8632H656.451L656.432 76.7858Z" fill="#A996C6"/>
</svg>
